<?xml version="1.0" encoding="UTF-8"?>
<svg id="Calque_2" data-name="Calque 2" xmlns="http://www.w3.org/2000/svg" viewBox="0 0 35.98 35.41">
  <defs>
    <style>
      .cls-1 {
        fill: #fff;
        stroke-width: 0px;
      }
    </style>
  </defs>
  <g id="Calque_1-2" data-name="Calque 1">
    <path class="cls-1" d="M21.34,26.22c.96-.22,1.89-.38,2.79-.65,2.99-.9,4.65-2.97,5.16-6,.25-1.53.33-3.07-.13-4.58-.26-.87-.68-1.66-1.28-2.35-.18-.21-.22-.38-.14-.65.43-1.42.29-2.83-.2-4.2-.05-.14-.29-.31-.42-.3-.6.09-1.23.15-1.79.38-.88.37-1.69.88-2.54,1.31-.18.09-.43.15-.62.11-2.77-.66-5.54-.66-8.32,0-.2.05-.48,0-.66-.11-1.2-.74-2.4-1.43-3.82-1.66-.77-.12-.85-.08-1.06.66-.38,1.3-.44,2.61-.05,3.93.04.12,0,.32-.07.42-1.62,1.92-1.89,4.16-1.57,6.54.2,1.52.64,2.96,1.61,4.18,1.23,1.55,2.92,2.29,4.79,2.68.52.11,1.05.18,1.63.28-.6.65-.9,1.39-1.06,2.21-.02.12-.17.26-.29.31-2,.86-3.79.28-4.95-1.58-.6-.96-1.39-1.66-2.54-1.87-.22-.04-.46-.02-.68.02-.46.1-.52.34-.18.68.12.12.25.24.4.32.91.53,1.55,1.31,1.87,2.27.7,2.1,2.75,3,4.95,2.79.42-.04.84-.1,1.33-.16,0,1.18.03,2.32-.01,3.45-.02.64-.63.93-1.32.69-1.56-.53-3.04-1.25-4.37-2.22C2.47,29.24-.17,23.99,0,17.42.24,8.96,6.52,1.78,14.83.28c9.67-1.74,18.97,4.7,20.82,14.42,1.68,8.85-3.29,17.59-11.71,20.57-1.01.36-1.5,0-1.5-1.07,0-1.5.01-3,.03-4.5.01-1.29-.2-2.5-1.13-3.48Z"/>
  </g>
</svg>