<?xml version="1.0" encoding="UTF-8"?>
<svg id="Calque_2" data-name="Calque 2" xmlns="http://www.w3.org/2000/svg" viewBox="0 0 50 50">
  <defs>
    <style>
      .cls-1 {
        fill: #fff;
        stroke-width: 0px;
      }
    </style>
  </defs>
  <g id="Calque_1-2" data-name="Calque 1">
    <g>
      <path class="cls-1" d="M37.81,3c5.07,0,9.19,4.12,9.19,9.19v25.63c0,5.07-4.12,9.19-9.19,9.19H12.19c-5.07,0-9.19-4.12-9.19-9.19V12.19C3,7.12,7.12,3,12.19,3h25.63M37.81,0H12.19C5.46,0,0,5.46,0,12.19v25.63c0,6.73,5.46,12.19,12.19,12.19h25.63c6.73,0,12.19-5.46,12.19-12.19V12.19c0-6.73-5.46-12.19-12.19-12.19h0Z"/>
      <path class="cls-1" d="M25,17c4.41,0,8,3.59,8,8s-3.59,8-8,8-8-3.59-8-8,3.59-8,8-8M25,14c-6.08,0-11,4.92-11,11s4.92,11,11,11,11-4.92,11-11-4.92-11-11-11h0Z"/>
      <circle class="cls-1" cx="40" cy="8" r="2"/>
    </g>
  </g>
</svg>