<?xml version="1.0" encoding="UTF-8"?>
<svg id="Calque_2" data-name="Calque 2" xmlns="http://www.w3.org/2000/svg" viewBox="0 0 50 50">
  <defs>
    <style>
      .cls-1 {
        fill: #000;
      }

      .cls-1, .cls-2 {
        stroke-width: 0px;
      }

      .cls-2 {
        fill: #fff;
      }
    </style>
  </defs>
  <g id="Calque_1-2" data-name="Calque 1">
    <g>
      <rect class="cls-1" x="3" y="4" width="44" height="40"/>
      <path class="cls-2" d="M50,25.02c0,4.95,0,9.89,0,14.84,0,1.49,0,2.98,0,4.47.02,2.77-1.82,5.06-4.55,5.57-.6.11-1.22.09-1.83.09-1.72.01-3.44,0-5.16,0-1.7,0-3.4,0-5.1,0-1.9,0-3.8,0-5.71,0-1.69,0-3.38,0-5.07,0-1.71,0-3.43,0-5.14,0-1.7,0-3.39,0-5.09,0-1.7,0-3.4,0-5.1,0-.76,0-1.53.03-2.29-.04-1.64-.15-2.94-.94-3.92-2.26C.35,46.75,0,45.67,0,44.49,0,31.52,0,18.55,0,5.58,0,2.84,1.95.52,4.65.09,5.29,0,5.96.01,6.61,0c1.7,0,3.4,0,5.1,0,1.73,0,3.47,0,5.2,0,2.09,0,4.18,0,6.27,0,1.91,0,3.82,0,5.72,0,1.7,0,3.4,0,5.1,0,1.9,0,3.79,0,5.69,0,1.51,0,3.03.02,4.54,0,2.69-.04,4.96,1.67,5.61,4.26.17.69.15,1.39.15,2.09,0,4.87,0,9.73,0,14.6,0,1.36,0,2.71,0,4.07h0ZM27.03,43.04v-.26c0-4.17,0-8.34,0-12.52,0-.85.12-1.69.41-2.5.42-1.15,1.16-2.01,2.32-2.44.82-.31,1.68-.37,2.55-.25,1.06.15,1.9.65,2.47,1.57.62,1,.81,2.12.84,3.26.04,1.78.02,3.55.02,5.33,0,2.51,0,5.01,0,7.52,0,.1,0,.19,0,.29h7.41c0-.08,0-.15,0-.22,0-1.23,0-2.46,0-3.7,0-3.85-.01-7.7-.02-11.55,0-1.36-.19-2.7-.65-3.99-.73-2.05-2.03-3.6-4.03-4.51-1.66-.76-3.42-.96-5.22-.74-2.18.26-3.99,1.27-5.41,2.95-.24.28-.45.59-.7.92v-3.19h-7.13v24.03h7.14ZM15.09,43.04v-24.04h-7.42v24.04h7.42ZM6.96,11.4c-.02,2.42,1.98,4.5,4.51,4.43,2.39-.06,4.3-2.03,4.29-4.48-.02-2.45-2.02-4.41-4.47-4.39-2.38.02-4.35,2.04-4.33,4.43Z"/>
    </g>
  </g>
</svg>